<?xml version="1.0" encoding="utf-8"?>
<svg xmlns="http://www.w3.org/2000/svg" xmlns:xlink="http://www.w3.org/1999/xlink" style="margin: auto; background: rgb(255, 255, 255); display: block; shape-rendering: auto;" width="25px" height="25px" viewBox="0 0 100 100" preserveAspectRatio="xMidYMid">
<g transform="rotate(0 50 50)">
  <rect x="47" y="24" rx="3" ry="6" width="6" height="12" fill="#ea3f34">
    <animate attributeName="opacity" values="1;0" keyTimes="0;1" dur="0.8547008547008548s" begin="-0.7834757834757835s" repeatCount="indefinite"></animate>
  </rect>
</g><g transform="rotate(30 50 50)">
  <rect x="47" y="24" rx="3" ry="6" width="6" height="12" fill="#f2982c">
    <animate attributeName="opacity" values="1;0" keyTimes="0;1" dur="0.8547008547008548s" begin="-0.7122507122507123s" repeatCount="indefinite"></animate>
  </rect>
</g><g transform="rotate(60 50 50)">
  <rect x="47" y="24" rx="3" ry="6" width="6" height="12" fill="#52a360">
    <animate attributeName="opacity" values="1;0" keyTimes="0;1" dur="0.8547008547008548s" begin="-0.6410256410256411s" repeatCount="indefinite"></animate>
  </rect>
</g><g transform="rotate(90 50 50)">
  <rect x="47" y="24" rx="3" ry="6" width="6" height="12" fill="#674794">
    <animate attributeName="opacity" values="1;0" keyTimes="0;1" dur="0.8547008547008548s" begin="-0.5698005698005698s" repeatCount="indefinite"></animate>
  </rect>
</g><g transform="rotate(120 50 50)">
  <rect x="47" y="24" rx="3" ry="6" width="6" height="12" fill="#080808">
    <animate attributeName="opacity" values="1;0" keyTimes="0;1" dur="0.8547008547008548s" begin="-0.4985754985754986s" repeatCount="indefinite"></animate>
  </rect>
</g><g transform="rotate(150 50 50)">
  <rect x="47" y="24" rx="3" ry="6" width="6" height="12" fill="#ea3f34">
    <animate attributeName="opacity" values="1;0" keyTimes="0;1" dur="0.8547008547008548s" begin="-0.4273504273504274s" repeatCount="indefinite"></animate>
  </rect>
</g><g transform="rotate(180 50 50)">
  <rect x="47" y="24" rx="3" ry="6" width="6" height="12" fill="#f2982c">
    <animate attributeName="opacity" values="1;0" keyTimes="0;1" dur="0.8547008547008548s" begin="-0.3561253561253562s" repeatCount="indefinite"></animate>
  </rect>
</g><g transform="rotate(210 50 50)">
  <rect x="47" y="24" rx="3" ry="6" width="6" height="12" fill="#52a360">
    <animate attributeName="opacity" values="1;0" keyTimes="0;1" dur="0.8547008547008548s" begin="-0.2849002849002849s" repeatCount="indefinite"></animate>
  </rect>
</g><g transform="rotate(240 50 50)">
  <rect x="47" y="24" rx="3" ry="6" width="6" height="12" fill="#674794">
    <animate attributeName="opacity" values="1;0" keyTimes="0;1" dur="0.8547008547008548s" begin="-0.2136752136752137s" repeatCount="indefinite"></animate>
  </rect>
</g><g transform="rotate(270 50 50)">
  <rect x="47" y="24" rx="3" ry="6" width="6" height="12" fill="#080808">
    <animate attributeName="opacity" values="1;0" keyTimes="0;1" dur="0.8547008547008548s" begin="-0.14245014245014245s" repeatCount="indefinite"></animate>
  </rect>
</g><g transform="rotate(300 50 50)">
  <rect x="47" y="24" rx="3" ry="6" width="6" height="12" fill="#ea3f34">
    <animate attributeName="opacity" values="1;0" keyTimes="0;1" dur="0.8547008547008548s" begin="-0.07122507122507123s" repeatCount="indefinite"></animate>
  </rect>
</g><g transform="rotate(330 50 50)">
  <rect x="47" y="24" rx="3" ry="6" width="6" height="12" fill="#f2982c">
    <animate attributeName="opacity" values="1;0" keyTimes="0;1" dur="0.8547008547008548s" begin="0s" repeatCount="indefinite"></animate>
  </rect>
</g>
<!-- [ldio] generated by https://loading.io/ --></svg>